<?xml version="1.0" encoding="utf-8"?><svg version="1.1" xmlns="http://www.w3.org/2000/svg" viewBox="0 0 782 300"><rect x="569.92" y="105.48" width="98.7" height="63.04" fill="none" stroke="#007cdf" stroke-miterlimit="10" stroke-width="4"/><polygon points="639.42 194.35 598.92 194.35 605.07 186.94 633.8 186.94 639.42 194.35" fill="none" stroke="#007cdf" stroke-miterlimit="10" stroke-width="3"/><path d="M680.28,196.41H558.92a8.11,8.11,0,0,1-5.27-1.95,6.1,6.1,0,0,1-.26-8.83l16.53-17.11h98.7L685.7,185.6a6.08,6.08,0,0,1-.19,8.9A8.09,8.09,0,0,1,680.28,196.41Z" fill="none" stroke="#007cdf" stroke-miterlimit="10" stroke-width="4"/><path d="M542.49,136.14l-2.19.39a1.51,1.51,0,0,1-2.15,0l-3.11-3.1a1.53,1.53,0,0,1,0-2.15l.23-.23a1.53,1.53,0,0,1,2.15,0Z" fill="#007cdf"/><path d="M535,141l.23.23a1.53,1.53,0,0,0,2.15,0l5.07-5.08-2.19-.4a1.51,1.51,0,0,0-2.15,0l-3.11,3.1A1.53,1.53,0,0,0,535,141Z" fill="#007cdf"/><path d="M511.73,136.14l-2.19.39a1.51,1.51,0,0,1-2.15,0l-3.11-3.1a1.53,1.53,0,0,1,0-2.15l.23-.23a1.53,1.53,0,0,1,2.15,0Z" fill="#007cdf"/><path d="M504.28,141l.23.23a1.53,1.53,0,0,0,2.15,0l5.07-5.08-2.19-.4a1.51,1.51,0,0,0-2.15,0l-3.11,3.1A1.53,1.53,0,0,0,504.28,141Z" fill="#007cdf"/><path d="M276.44,136.14l-2.19.39a1.51,1.51,0,0,1-2.15,0l-3.11-3.1a1.53,1.53,0,0,1,0-2.15l.23-.23a1.53,1.53,0,0,1,2.15,0Z" fill="#007cdf"/><path d="M269,141l.23.23a1.53,1.53,0,0,0,2.15,0l5.07-5.08-2.19-.4a1.51,1.51,0,0,0-2.15,0l-3.11,3.1A1.53,1.53,0,0,0,269,141Z" fill="#007cdf"/><path d="M245.53,136.14l-2.2.39a1.51,1.51,0,0,1-2.15,0l-3.1-3.1a1.51,1.51,0,0,1,0-2.15l.22-.23a1.54,1.54,0,0,1,2.16,0Z" fill="#007cdf"/><path d="M238.08,141l.22.23a1.54,1.54,0,0,0,2.16,0l5.07-5.08-2.2-.4a1.51,1.51,0,0,0-2.15,0l-3.1,3.1A1.51,1.51,0,0,0,238.08,141Z" fill="#007cdf"/><rect x="301.86" y="117.65" width="42.93" height="30.59" fill="none" stroke="#007cdf" stroke-miterlimit="10" stroke-width="3"/><polygon points="301.86 136.98 311.83 128.3 331.1 148.24 301.86 148.24 301.86 136.98" fill="none" stroke="#007cdf" stroke-miterlimit="10" stroke-width="3"/><polyline points="324.75 141.67 331.1 135.29 344.79 148.24" fill="none" stroke="#007cdf" stroke-miterlimit="10" stroke-width="3"/><circle cx="338.7" cy="124.24" r="2.03" fill="#007cdf"/><path d="M346.14,123v3.3h4.48v26.87H310.31v-3.55h-3.55v6.68h46.9V123Z" fill="#007cdf"/><ellipse cx="377.96" cy="155.08" rx="7.1" ry="5.08" fill="none" stroke="#007cdf" stroke-miterlimit="10" stroke-width="3"/><ellipse cx="406.68" cy="147.9" rx="7.62" ry="5.41" fill="none" stroke="#007cdf" stroke-miterlimit="10" stroke-width="3"/><path d="M386.54,117.65v37.14a1.48,1.48,0,0,1-1.48,1.48h0v-4.35h-2.29V117.65Z" fill="#007cdf"/><polygon points="415.66 110.08 382.77 117.65 384.17 121.53 415.66 113.54 415.66 110.08" fill="#007cdf"/><path d="M415.66,112.83v35.92a.93.93,0,0,1-.93.93h-1V144.4H411.8V112.83Z" fill="#007cdf"/><path d="M196.82,98.37H132.76a2.45,2.45,0,0,0-2.45,2.45v42.76a2.45,2.45,0,0,0,2.45,2.45h64.06a2.45,2.45,0,0,0,2.45-2.45V100.82A2.45,2.45,0,0,0,196.82,98.37Zm-1.61,42.76H134.37V101.92h60.84Z" fill="#007cdf"/><polygon points="183.38 186.1 179.15 186.1 175.94 175.11 157.52 175.11 153.13 186.1 149.07 186.1 154.82 171.9 178.31 171.9 183.38 186.1" fill="#007cdf"/><path d="M238.67,186.1l-25-32.28H117L92.57,186.1l-.63.84H239.32Zm-140-.68L119.83,156h90.93l22.31,30.09Z" fill="#007cdf"/><path d="M467.7,106.92H436.14v58.31h46.52v-43.1Zm.38,5.91,9.38,9.3h-9.38Zm10.78,49H439.18V111H465v14.45h13.82Z" fill="#007cdf"/><rect x="442.6" y="121.53" width="18.25" height="3.89" fill="#007cdf"/><rect x="442.6" y="128.66" width="32.83" height="3.89" fill="#007cdf"/><rect x="442.6" y="135.79" width="32.83" height="3.89" fill="#007cdf"/><rect x="442.6" y="142.91" width="32.83" height="3.89" fill="#007cdf"/><rect x="442.6" y="150.04" width="32.83" height="3.89" fill="#007cdf"/><path d="M238.67,186.1H92.57l-.63.84v13.19H239.32V186.94Zm-2.9,11.49H95.66v-8.11H235.77Z" fill="#007cdf"/><path d="M209.24,92.91v59.54H120.68V93.63l-3.28-3.21h-.27v64.4h96.5V89.41Z" fill="#007cdf"/><path d="M117.13,90.42s39.2-12.33,96.5-1l-4.39,4.22s-4.54-2.81-18.59-4.22c-19.39-2-51.84-2-70,4.22Z" fill="#007cdf"/></svg>
