<?xml version="1.0" encoding="utf-8"?><svg version="1.1" xmlns="http://www.w3.org/2000/svg" viewBox="0 0 142 30"><path d="M142,13.71v-2.5h-3.1V7.33l-.11,0-2.91.89-.06,0v2.94h-4.59V9.57a2.65,2.65,0,0,1,.5-1.74,1.82,1.82,0,0,1,1.42-.58,3.35,3.35,0,0,1,1.35.31l.12.05V5l-.06,0a5.29,5.29,0,0,0-1.72-.23,5,5,0,0,0-2.44.59A4.19,4.19,0,0,0,128.72,7a4.94,4.94,0,0,0-.59,2.43v1.8H126v2.5h2.16V24.23h3.1V13.71h4.59v6.68c0,2.76,1.3,4.15,3.86,4.15A6.74,6.74,0,0,0,141,24.4a3.56,3.56,0,0,0,1-.31l0,0V21.55l-.13.08a2.1,2.1,0,0,1-.62.27,2.39,2.39,0,0,1-.61.11,1.69,1.69,0,0,1-1.32-.48,2.61,2.61,0,0,1-.42-1.68V13.71ZM119,22a3.29,3.29,0,0,1-2.63-1.11,4.7,4.7,0,0,1-1-3.13,4.88,4.88,0,0,1,1-3.21A3.21,3.21,0,0,1,119,13.43a3.17,3.17,0,0,1,2.54,1.08,4.77,4.77,0,0,1,.93,3.18,5.12,5.12,0,0,1-.87,3.23A3.12,3.12,0,0,1,119,22m.14-11.11a6.75,6.75,0,0,0-5.06,1.87,7,7,0,0,0-1.84,5.1,6.65,6.65,0,0,0,1.79,4.87,6.47,6.47,0,0,0,4.8,1.8,6.65,6.65,0,0,0,5-1.89,7,7,0,0,0,1.83-5.06A6.83,6.83,0,0,0,124,12.68a6.36,6.36,0,0,0-4.77-1.78m-11.89,0A5.58,5.58,0,0,0,103.7,12a3.53,3.53,0,0,0-1.4,2.88,4.07,4.07,0,0,0,.3,1.62,3.26,3.26,0,0,0,.92,1.21,8.25,8.25,0,0,0,1.89,1.05,16,16,0,0,1,1.57.73,2.32,2.32,0,0,1,.69.57,1.33,1.33,0,0,1,.19.74c0,.87-.66,1.3-2,1.3a5.74,5.74,0,0,1-1.7-.31,6.57,6.57,0,0,1-1.73-.88l-.13-.1v3l0,0a8.3,8.3,0,0,0,1.65.51,9.11,9.11,0,0,0,1.75.2,5.94,5.94,0,0,0,3.79-1.11,3.63,3.63,0,0,0,1.42-3,3.43,3.43,0,0,0-.76-2.24,6.55,6.55,0,0,0-2.58-1.64,6.47,6.47,0,0,1-1.84-1,1.31,1.31,0,0,1-.37-1,1.12,1.12,0,0,1,.47-.93,2.16,2.16,0,0,1,1.32-.37,5.45,5.45,0,0,1,1.57.24,5.25,5.25,0,0,1,1.37.64l.12.08V11.46l0,0a7.37,7.37,0,0,0-1.4-.39,8.84,8.84,0,0,0-1.52-.15M94.22,22a3.3,3.3,0,0,1-2.64-1.11,4.7,4.7,0,0,1-1-3.13,4.88,4.88,0,0,1,1-3.21,3.21,3.21,0,0,1,2.61-1.13,3.17,3.17,0,0,1,2.54,1.08,4.77,4.77,0,0,1,.93,3.18,5.12,5.12,0,0,1-.87,3.23A3.11,3.11,0,0,1,94.22,22m.13-11.11a6.75,6.75,0,0,0-5.06,1.87,7,7,0,0,0-1.83,5.1,6.64,6.64,0,0,0,1.78,4.87,6.47,6.47,0,0,0,4.8,1.8,6.65,6.65,0,0,0,5-1.89,7,7,0,0,0,1.83-5.06,6.83,6.83,0,0,0-1.72-4.91,6.34,6.34,0,0,0-4.77-1.78m-11.6,2.56V11.21H79.69v13h3.06V17.57a4.72,4.72,0,0,1,.76-2.77,2.35,2.35,0,0,1,2-1,3.51,3.51,0,0,1,.92.13,2.33,2.33,0,0,1,.72.29l.13.09V11.19l-.05,0A3,3,0,0,0,86,11a3.13,3.13,0,0,0-2.05.74,4.17,4.17,0,0,0-1.18,1.74ZM74.2,10.9a7.61,7.61,0,0,0-3.72.89A6.12,6.12,0,0,0,68,14.32a8,8,0,0,0-.84,3.74A6.92,6.92,0,0,0,68,21.41a5.75,5.75,0,0,0,2.29,2.32,6.83,6.83,0,0,0,3.35.81,7.35,7.35,0,0,0,3.69-.86l0,0v-2.8l-.13.09a5.72,5.72,0,0,1-1.49.78,4.54,4.54,0,0,1-1.47.29,3.79,3.79,0,0,1-2.87-1.12,4.36,4.36,0,0,1-1-3.1,4.48,4.48,0,0,1,1.1-3.17,3.73,3.73,0,0,1,2.87-1.19,4.94,4.94,0,0,1,2.92,1l.12.1v-3l0,0a4.81,4.81,0,0,0-1.41-.48,8.67,8.67,0,0,0-1.72-.18m-9.13.31H62v13h3.06v-13Zm-1.5-5.55a1.85,1.85,0,0,0-1.3.52,1.66,1.66,0,0,0-.55,1.27,1.63,1.63,0,0,0,.54,1.25,1.84,1.84,0,0,0,1.31.5,1.86,1.86,0,0,0,1.32-.5,1.64,1.64,0,0,0,.55-1.25,1.69,1.69,0,0,0-.54-1.26,1.82,1.82,0,0,0-1.33-.53m-7.64,4.59v14h3.13V6.06H54.73l-5.5,13.49L43.9,6.06H39.4V24.23h2.93v-14h.11l5.63,14h2.21l5.55-14Z" fill="#706d6e"/><path d="M14.41,14.4H0V0H14.41Z" fill="#f1511b"/><path d="M30.31,14.4H15.91V0h14.4V14.4Z" fill="#80cc28"/><path d="M14.4,30.31H0V15.9H14.4Z" fill="#00adef"/><path d="M30.31,30.31H15.91V15.9h14.4V30.31Z" fill="#fbbc09"/></svg>
